<svg width="460" height="539" viewBox="0 0 460 539" fill="none" xmlns="http://www.w3.org/2000/svg">
<path d="M143.5 537L144.5 529.5L177.788 517.635C184.559 515.222 189.08 508.81 189.08 501.622V268.943C189.08 247.846 174.728 229.453 154.264 224.323L143 221.5V214H265.733C300.803 214 340.883 215.849 360.923 230.545C381.297 244.907 391.484 264.78 391.484 290.164C391.484 309.536 388.526 331.304 375.5 346C362.808 360.362 336.708 375.334 316 382.348L412.429 511.101C414.391 513.72 417.066 515.717 420.135 516.853L457 530.5L459.5 538.159H406.598C391.36 538.159 377.028 530.924 367.979 518.664L273.749 391H228.158V501.287C228.158 508.394 232.579 514.75 239.241 517.224L275 530.5L276 537H143.5ZM260.723 231.547H236.158C231.74 231.547 228.158 235.129 228.158 239.547V361.306H263.729C284.771 361.306 314.664 355.628 328.358 343.27C342.386 330.912 349.4 315.381 349.4 296.677C349.4 276.637 342.553 260.939 328.859 249.583C315.165 237.893 284.103 231.547 260.723 231.547Z" fill="white"/>
<path d="M178.5 0.0303502C222.333 -0.636316 310.9 9.43042 314.5 55.0303C317.579 94.0303 253.5 111.03 243.5 55.0303C240.732 39.5303 224.5 18.5303 171 18.5303C115.219 18.5303 70 84.7922 70 166.53C70 248.268 124.719 316.53 180.5 316.53C200.255 318.368 238.33 316.068 245 294.272V203.53C245 185.305 230.225 170.53 212 170.53H201V163.53H337V170.53C321.536 170.53 309 183.066 309 198.53V280.224C311.812 291.712 317.741 302.338 321 307.03C276.5 332.03 224.5 339.03 176 339.03C78.7979 339.03 0 262.866 0 169.53C4.43032e-05 76.1943 81.2979 0.0303502 178.5 0.0303502Z" fill="white"/>
</svg>
