<svg width="2177" height="541" viewBox="0 0 2177 541" fill="none" xmlns="http://www.w3.org/2000/svg">
<path d="M1007.5 529.5L1008.5 522L1041.79 510.135C1048.56 507.722 1053.08 501.31 1053.08 494.122V261.443C1053.08 240.346 1038.73 221.953 1018.26 216.823L1007 214V206.5H1129.73C1164.8 206.5 1204.88 208.349 1224.92 223.045C1245.3 237.407 1255.48 257.28 1255.48 282.664C1255.48 302.036 1252.53 323.804 1239.5 338.5C1226.81 352.862 1200.71 367.834 1180 374.848L1276.43 503.601C1278.39 506.22 1281.07 508.217 1284.13 509.353L1321 523L1323.5 530.659H1270.6C1255.36 530.659 1241.03 523.424 1231.98 511.164L1137.75 383.5H1092.16V493.787C1092.16 500.894 1096.58 507.25 1103.24 509.724L1139 523L1140 529.5H1007.5ZM1124.72 224.047H1100.16C1095.74 224.047 1092.16 227.629 1092.16 232.047V353.806H1127.73C1148.77 353.806 1178.66 348.128 1192.36 335.77C1206.39 323.412 1213.4 307.881 1213.4 289.177C1213.4 269.137 1206.55 253.439 1192.86 242.083C1179.17 230.393 1148.1 224.047 1124.72 224.047Z" fill="white"/>
<path d="M1419.29 536.17C1397.91 536.17 1379.21 530.993 1363.17 520.639C1347.14 510.285 1330.02 496.257 1321 478.555C1311.98 460.853 1309 440.813 1309 418.435C1309 396.057 1316.58 376.017 1325.6 358.315C1334.62 340.613 1347.14 326.585 1363.17 316.231C1379.21 305.877 1397.91 300.7 1419.29 300.7C1440.66 300.7 1459.37 305.877 1475.4 316.231C1491.43 326.585 1503.96 340.613 1512.97 358.315C1521.99 376.017 1528.53 396.502 1528.53 418.88C1528.53 441.258 1524.02 461.298 1515 479C1505.98 496.702 1491.43 510.285 1475.4 520.639C1459.37 530.993 1440.66 536.17 1419.29 536.17ZM1426.3 518.635C1440.33 518.635 1452.02 514.293 1461.37 505.609C1470.72 496.925 1477.74 485.736 1482.41 472.042C1487.09 458.014 1489.43 443.485 1489.43 428.455C1489.43 409.417 1486.59 391.548 1480.91 374.848C1475.57 357.814 1467.22 344.12 1455.86 333.766C1444.84 323.078 1430.64 317.734 1413.27 317.734C1399.25 317.734 1387.39 321.909 1377.7 330.259C1368.35 338.609 1361.17 349.631 1356.16 363.325C1351.48 377.019 1349.15 391.882 1349.15 407.914C1349.15 427.286 1351.98 445.489 1357.66 462.523C1363.34 479.223 1371.86 492.75 1383.21 503.104C1394.57 513.458 1408.93 518.635 1426.3 518.635Z" fill="white"/>
<path d="M1667.21 536.17C1645.84 536.17 1627.13 530.993 1611.1 520.639C1595.07 510.285 1582.55 496.257 1573.53 478.555C1564.51 460.853 1560 440.813 1560 418.435C1560 396.057 1564.51 376.017 1573.53 358.315C1582.55 340.613 1595.07 326.585 1611.1 316.231C1627.13 305.877 1645.84 300.7 1667.21 300.7C1688.59 300.7 1707.29 305.877 1723.33 316.231C1739.36 326.585 1751.88 340.613 1760.9 358.315C1769.92 376.017 1774.43 396.057 1774.43 418.435C1774.43 440.813 1769.92 460.853 1760.9 478.555C1751.88 496.257 1739.36 510.285 1723.33 520.639C1707.29 530.993 1688.59 536.17 1667.21 536.17ZM1674.23 518.635C1688.26 518.635 1699.95 514.293 1709.3 505.609C1718.65 496.925 1725.66 485.736 1730.34 472.042C1735.02 458.014 1737.35 443.485 1737.35 428.455C1737.35 409.417 1734.52 391.548 1728.84 374.848C1723.49 357.814 1715.14 344.12 1703.79 333.766C1692.77 323.078 1678.57 317.734 1661.2 317.734C1647.17 317.734 1635.32 321.909 1625.63 330.259C1616.28 338.609 1609.1 349.631 1604.09 363.325C1599.41 377.019 1597.07 391.882 1597.07 407.914C1597.07 427.286 1599.91 445.489 1605.59 462.523C1611.27 479.223 1619.79 492.75 1631.14 503.104C1642.5 513.458 1656.86 518.635 1674.23 518.635Z" fill="white"/>
<path d="M1789.5 529V523.144L1815.19 514.018C1821.97 511.609 1826.5 505.193 1826.5 497.998V373.956C1826.5 355.452 1815.86 338.596 1799.16 330.631L1790.5 326.5V320.5L1856.74 307H1860.24V352.804L1869.5 336.772C1881.52 324.414 1889.63 315.73 1900.32 309.718C1911.34 303.706 1923.54 300.7 1936.9 300.7C1951.93 300.7 1964.95 304.04 1975.97 310.72C1987.33 317.4 1995.01 327.42 1999.02 340.78H2000.52C2013.88 327.086 2026.24 317.066 2037.6 310.72C2049.29 304.04 2062.15 300.7 2076.17 300.7C2095.55 300.7 2111.41 306.044 2123.77 316.732C2136.46 327.42 2142.81 342.951 2142.81 363.325V498.742C2142.81 505.876 2147.26 512.251 2153.96 514.704L2177 523.144V529H2073.17V523.144L2097.38 514.617C2104.19 512.222 2108.74 505.794 2108.74 498.582V382.864C2108.74 365.83 2103.9 352.971 2094.21 344.287C2084.86 335.269 2072.83 330.76 2058.14 330.76C2047.78 330.76 2038.43 334.264 2028.08 338.272C2018.06 341.946 2015.5 345.787 2007.5 358C2004 363.343 2000.52 372.326 2000.52 376V499.106C2000.52 506.059 2004.76 512.311 2011.21 514.892L2034 524V529.5H1932.3V524L1955.83 515.407C1962.54 512.958 1967 506.579 1967 499.438V383.574C1967 366.54 1964.28 352.971 1954.93 344.287C1945.58 335.269 1933.56 330.76 1918.86 330.76C1910.18 330.76 1900.49 332.764 1889.8 336.772C1879.45 340.446 1869.5 352 1859 373.5V498.995C1859 506.352 1863.73 512.873 1870.73 515.156L1895.2 523.144V529H1789.5Z" fill="white"/>
<path d="M178.5 201C222.333 200.333 310.9 210.4 314.5 256C317.579 295 253.5 312 243.5 256C240.732 240.5 224.5 219.5 171 219.5C115.219 219.5 70 285.762 70 367.5C70 449.238 124.719 517.5 180.5 517.5C200.255 519.338 238.33 517.038 245 495.241V404.5C245 386.275 230.225 371.5 212 371.5H201V364.5H337V371.5C321.536 371.5 309 384.036 309 399.5V481.193C311.812 492.682 317.741 503.308 321 508C276.5 533 224.5 540 176 540C78.7979 540 0 463.836 0 370.5C4.43032e-05 277.164 81.2979 201 178.5 201Z" fill="white"/>
<path d="M604.5 217.5L695 191V500.5C695 513.755 705.745 524.5 719 524.5H722.5V530H603V525H611C622.598 525 632 515.598 632 504V247C632 233.193 620.807 222 607 222H604.5V217.5Z" fill="white"/>
<path d="M746 530H867.5V524.5H858.5C847.454 524.5 838.5 515.545 838.5 504.5V331.999H880.5L891.5 309.499H838.5V230.36C838.5 226.576 839.841 222.914 842.286 220.025L842.825 219.388C843.334 218.786 844.307 218.975 844.557 219.723C848.31 230.937 857.776 251.5 881.5 251.5C906.5 251.5 925 201.302 880.5 192.499C836 183.697 773.5 222 773.5 309.499H756L744 331.999H773.5V505.5C773.5 515.993 764.993 524.5 754.5 524.5H746V530Z" fill="white"/>
<path fill-rule="evenodd" clip-rule="evenodd" d="M542.46 327.118C489.713 288.778 416.006 300.455 377.49 352.95C339.48 405.586 351.033 479.609 403.527 517.878C456.022 556.148 529.981 544.541 568.244 491.976C606.76 439.48 595.207 365.458 542.46 327.118ZM557.999 399.523C560.412 404.551 559.372 415.157 555.091 420.777C553.448 422.773 550.361 424.094 546.432 423.548C542.825 422.819 541.113 420.165 540.44 416.71C538.995 411.134 538.814 405.909 540.611 400.415C541.916 396.692 544.092 393.756 548.302 393.29C551.684 392.868 556.315 395.787 557.999 399.523ZM531.145 451.171C527.58 456.173 523.06 458.732 516.788 457.807C512.606 457.191 510.066 454.579 509.281 450.548C507.387 442.669 512.062 431.71 518.911 427.62C523.178 424.991 527.64 424.596 531.836 427.122C536.032 429.649 536.564 433.61 536.129 438.119C535.623 442.881 534.177 447.11 531.145 451.171ZM375.993 424.984C373.089 416.824 372.557 407.96 374.368 399.475C389.506 336.131 457.447 304.061 514.897 330.36C521.184 333.195 526.937 336.971 532.831 340.242C541.306 346.953 548.995 354.535 554.93 363.536C556.46 365.867 557.456 369.14 557.764 371.949C558.226 376.163 555.181 378.313 550.999 377.697C549.413 377.529 547.968 376.856 546.452 376.435C537.569 373.152 530.861 376.737 529.667 385.938C529.161 390.7 529.665 395.743 530.24 400.532C531.039 406.474 528.541 409.593 522.38 409.245C513.876 408.518 505.525 414.098 501.664 423.104C499.362 428.457 498.645 433.977 499.767 439.736C500.707 445.172 497.956 448.221 492.3 448.013C484.301 447.426 477.438 449.607 471.389 454.736C467.81 457.828 464.961 457.31 461.804 453.982C457.595 449.545 453.456 444.855 448.6 440.783C440.813 434.536 432.926 434.525 424.575 440.105C423.284 440.836 421.993 441.567 420.519 441.975C416.744 442.834 414.428 441.374 413.25 437.778C411.483 432.385 408.424 427.723 403.863 424.55C398.18 420.521 392.567 421.142 387.921 426.116C387.528 426.552 387.135 426.987 386.812 427.17C382.419 432.215 378.237 431.599 375.993 424.984ZM386.44 475.548C385.865 475.661 384.925 475.127 384.167 474.917C379.733 469.328 376.773 463.331 376.072 456.055C375.96 455.479 376.494 454.538 376.887 454.102C377.209 453.92 378.22 454.2 378.655 454.593C383.734 459.817 386.554 466.319 387.255 473.595C387.297 474.424 386.763 475.365 386.44 475.548ZM404.812 466.213C402.033 465.442 399.395 464.164 397.01 462.957C393.025 459.672 389.755 455.768 388.746 450.586C388.114 447.959 388.381 445.037 389.083 442.508C390.53 438.28 394.768 436.733 398.529 438.866C400.662 440.003 402.724 441.393 404.394 443.218C408.604 447.655 411.129 453.259 412.181 459.271C413.19 464.454 409.934 467.363 404.812 466.213ZM423.639 505.213C423.176 505.902 421.38 506.492 420.622 506.282C416.651 504.907 412.75 503.279 409.284 502.045C406.996 499.503 405.074 497.608 403.545 495.277C402.015 492.945 403.012 491.316 405.608 491.764C407.952 492.142 410.548 492.591 412.611 493.98C416.301 496.367 419.599 499.189 423.079 502.334C423.766 502.797 424.103 504.525 423.639 505.213ZM426.044 474.014C418.592 469.494 422.635 460.811 428.881 457.915C438.537 453.514 452.808 459.928 455.908 470.321C457.381 474.815 454.601 478.946 449.675 480.03C441.367 481.537 433.86 479.18 426.044 474.014ZM470.189 508.059C462.035 510.97 454.246 509.625 447.525 506.397C442.782 502.901 443.189 499.474 447.428 497.927C455.582 495.016 463.44 496.108 470.891 500.628C474.582 503.014 474.104 506.695 470.189 508.059ZM475.581 486.677C469.154 484.348 467.625 477.115 472.018 472.07C477.983 465.283 491.681 462.004 499.918 465.653C500.676 465.863 501.363 466.326 501.616 466.396C507.046 470.355 507.705 476.803 502.835 480.625C495.031 487.175 485.797 490.058 475.581 486.677ZM512.275 511.3C508.626 514.645 504.065 516.374 499.462 517.275C497.735 517.613 495.504 517.811 493.666 517.573C490.747 517.307 490.087 515.762 492.193 513.078C495.196 510.099 499.252 508.229 503.603 507.258C505.905 506.808 508.206 506.357 510.62 506.482C511.7 506.51 513.398 507.254 513.44 508.083C513.988 509.052 512.991 510.681 512.275 511.3ZM543.21 476.31C540.052 482.787 534.354 486.652 527.631 488.327C525.259 489.03 522.523 489.087 520.741 486.686C518.706 484.215 519.914 481.826 521.373 479.508C521.837 478.819 522.3 478.131 522.763 477.442C526.763 472.833 531.493 469.516 537.5 468.46C539.801 468.01 542.468 468.205 543.492 470.396C544.404 472.011 544.207 474.68 543.21 476.31ZM566.322 390.122C566.449 387.706 567.67 387.228 569.732 388.618C570.35 389.334 571.149 390.373 571.697 391.342C575.05 396.903 576.031 403.168 575.932 409.404C575.904 410.486 575.048 411.61 574.514 412.552C573.574 412.018 572.059 411.597 571.764 410.699C568.046 404.491 565.872 397.623 566.322 390.122ZM560.208 456.244C557.443 457.383 555.815 456.386 555.325 453.254C554.904 449.869 556.701 444.375 559.621 439.739C561.375 438.319 562.947 436.577 564.954 435.227C567.537 433.765 569.417 434.832 569.978 437.712C570.777 443.653 565.232 453.825 560.208 456.244ZM474.343 409.799C480.532 409.066 485.443 410.974 488.866 416.282C491.125 419.906 490.718 423.333 488.402 426.776C483.91 433.155 472.486 437.065 464.979 434.708C460.249 433.123 456.952 430.301 456.125 425.441C455.227 420.834 458.048 417.532 461.487 414.946C465.319 411.924 469.627 410.124 474.343 409.799ZM421.353 402.714C426.588 399.537 431.878 399.099 437.197 402.482C440.634 404.799 441.883 408.141 441.265 412.328C439.917 420.124 431.116 428.303 423.201 429.374C418.416 429.952 414.121 428.76 411.175 424.674C408.411 420.91 409.604 416.611 411.738 412.846C414.012 408.575 417.156 405.09 421.353 402.714ZM510.334 341.895C510.868 340.954 512.412 340.293 513.24 340.25C517.422 340.866 521.463 341.988 525.07 342.717C527.75 344.823 529.995 346.536 531.917 348.432C533.84 350.327 533.025 352.28 530.289 352.337C527.805 352.465 525.139 352.269 523.188 351.455C519.034 349.757 515.344 347.371 511.653 344.985C510.713 344.451 510.124 342.654 510.334 341.895ZM514.274 368.863C522.399 371.936 519.802 381.292 514.103 385.158C505.177 390.851 489.951 386.896 485.307 377.163C483.189 373.034 485.281 368.44 489.842 366.711C497.996 363.799 505.602 364.822 514.274 368.863ZM465.946 339.104C473.441 334.648 481.51 334.982 488.513 337.199C493.789 339.753 493.887 343.321 490.013 345.514C482.336 349.647 474.379 349.889 466.324 346.563C462.171 344.865 462.073 341.297 465.946 339.104ZM463.725 365.724C470.503 366.789 473.183 373.797 469.407 379.558C464.564 387.202 451.639 392.601 442.728 390.4C441.97 390.189 441.212 389.979 440.959 389.909C434.995 386.891 433.439 380.739 437.439 376.13C444.513 368.289 453.088 363.861 463.725 365.724ZM422.09 350.08C425.051 346.272 429.318 343.643 433.879 341.913C435.676 341.323 437.472 340.732 439.38 340.717C442.187 340.407 443.099 342.022 441.429 345.099C439.113 348.541 435.169 350.987 430.86 352.787C428.671 353.813 426.369 354.264 424.068 354.714C423.17 355.01 421.472 354.266 421.107 353.62C420.882 352.468 421.304 350.951 422.09 350.08ZM396.95 389.675C399.168 382.664 403.996 378.013 410.494 375.187C412.936 374.23 415.561 373.597 417.736 375.563C419.84 377.781 419.138 380.31 418.114 383.021C417.903 383.78 417.44 384.469 417.229 385.227C414.169 390.37 410.057 394.403 404.022 396.541C401.65 397.244 399.096 397.624 397.749 395.616C396.584 393.931 396.458 391.445 396.95 389.675Z" fill="white"/>
<path d="M32.4629 167.927V165.293L44.9656 164.634C47.7439 164.488 49.7911 163.61 51.1072 162C52.4233 160.244 53.0813 157.244 53.0813 153V11.1951H42.5528C37.7272 11.1951 33.4134 12 29.6115 13.6098C25.8095 15.2195 22.3731 17.7073 19.3023 21.0732C16.3777 24.439 13.5993 28.9024 10.9672 34.4634C8.33508 39.878 5.62983 46.5366 2.85147 54.439L0 53.561L5.26426 7.68293H127.658C133.069 7.68293 138.333 7.39025 143.451 6.80488C148.715 6.21952 153.76 5.34146 158.586 4.17073C163.558 3 168.31 1.60976 172.843 0L174.598 1.31707V73.5366H174.817C177.742 66.3658 182.348 60.878 188.636 57.0732C194.924 53.122 202.235 51.1463 210.57 51.1463C218.467 51.1463 225.12 52.6829 230.531 55.7561C235.941 58.6829 240.036 63.1463 242.814 69.1463C245.592 75 246.982 82.4634 246.982 91.5366V155.195C246.982 158.707 247.42 161.122 248.298 162.439C249.175 163.61 251.003 164.341 253.781 164.634L261.458 165.293V167.927H199.384V165.293L206.622 164.634C208.962 164.341 210.497 163.61 211.228 162.439C211.96 161.122 212.325 158.707 212.325 155.195V88.4634C212.325 81.2927 211.886 75.8049 211.009 72C210.132 68.1951 208.523 65.561 206.184 64.0976C203.99 62.4878 200.846 61.6829 196.752 61.6829C192.657 61.6829 188.928 62.8537 185.565 65.1951C182.202 67.5366 179.497 70.7561 177.449 74.8537C175.548 78.9512 174.598 83.7805 174.598 89.3415V154.756C174.598 158.415 174.89 160.902 175.475 162.22C176.06 163.39 177.376 164.122 179.424 164.415L187.539 165.293V167.927H125.904V165.293L134.458 164.415C136.651 164.268 138.114 163.537 138.845 162.22C139.576 160.902 139.942 158.341 139.942 154.537V11.1951H89.7118V153.878C89.7118 157.976 90.3698 160.756 91.6859 162.22C93.1482 163.683 95.3416 164.488 98.2662 164.634L110.33 165.293V167.927H32.4629Z" fill="white"/>
<path d="M312.454 171C301.048 171 291.178 168.805 282.843 164.415C274.508 159.878 268.073 153.293 263.54 144.659C259.153 136.024 256.96 125.561 256.96 113.268C256.96 99.9512 259.592 88.6829 264.856 79.4634C270.267 70.2439 277.432 63.2195 286.352 58.3902C295.418 53.561 305.581 51.1463 316.841 51.1463C326.346 51.1463 334.535 52.8293 341.408 56.1951C348.427 59.561 353.837 64.3902 357.639 70.6829C361.441 76.9756 363.342 84.3659 363.342 92.8537C363.342 94.7561 363.269 96.6585 363.123 98.561C363.123 100.463 363.049 102.439 362.903 104.488H293.152C293.006 114.293 294.102 122.561 296.442 129.293C298.928 135.878 302.657 140.854 307.629 144.22C312.6 147.585 318.669 149.268 325.834 149.268C331.976 149.268 337.898 148.39 343.601 146.634C349.304 144.732 355.372 141.073 361.807 135.659L364 137.195C358.882 148.024 351.936 156.366 343.162 162.22C334.535 168.073 324.299 171 312.454 171ZM293.152 100.976H329.563C329.855 98.7805 330.002 96.5854 330.002 94.3902C330.148 92.0488 330.221 89.7073 330.221 87.3659C330.221 75.5122 328.978 67.1707 326.492 62.3415C324.152 57.3659 320.35 54.878 315.086 54.878C310.992 54.878 307.409 56.1951 304.338 58.8293C301.268 61.4634 298.782 66.1463 296.881 72.8781C294.98 79.4634 293.737 88.8293 293.152 100.976Z" fill="white"/>
</svg>
